<?xml version="1.0" encoding="utf-8"?>
<!-- Generator: Adobe Illustrator 23.1.1, SVG Export Plug-In . SVG Version: 6.00 Build 0)  -->
<svg version="1.1" id="Layer_1" xmlns="http://www.w3.org/2000/svg" xmlns:xlink="http://www.w3.org/1999/xlink" x="0px" y="0px"
	 viewBox="0 0 780.1 328.2" style="enable-background:new 0 0 780.1 328.2;" xml:space="preserve">
<style type="text/css">
	.st0{fill:#FFFFFF;}
</style>
<g>
	<path class="st0" d="M104.6,0H0v8.6C23.6,9,27.3,14.8,27.3,32.2v75.9c0,17.4-3.7,23.2-27.3,23.6v8.6h98.8v-8.6
		c-23.6-0.4-27.3-6.2-27.3-23.6V81h33.1c36.3,0,66.4-11.8,66.4-40.6C171,11.8,140.9,0,104.6,0z M94.5,72.4h-23V8.6h23
		c20.4,0,28.4,10.1,28.4,31.8C122.9,62.3,114.9,72.4,94.5,72.4z"/>
	<path class="st0" d="M301.2,131.7c-23.6-0.4-27.3-6.2-27.3-23.6V32.2c0-17.4,3.7-23.2,27.3-23.6V0h-98.8v8.6
		c23.6,0.4,27.3,6.2,27.3,23.6v75.9c0,17.4-3.7,23.2-27.3,23.6v8.6h98.8V131.7z"/>
	<path class="st0" d="M539.3,0h-70.5v8.6c23.4,2.1,29.9,17.8,29.9,33.1v62.1L414.7,0h-73.2v8.6c10.3,1,19.9,4.4,27.1,8.7v81.5
		c0,15.3-6,30.9-29.9,32.9v8.6h69.4v-8.6c-23.4-2.1-29.9-17.6-29.9-32.9V25.1L471,140.3h37.3V42.8c0-15.3,10.3-32.5,31-34.2V0z"/>
	<path class="st0" d="M738,103.1c-9-12-30.7-40-42.6-55.9c3.9-2.9,9.3-7,10.4-7.7c16.1-12.3,43.6-29,59.3-30.9V0h-80.4v8.6
		C699.8,9,705,12,705,22.1c0,5.8-3.7,9-9.7,13.5l-53.7,40V32.2c0-17.4,6.7-23,24.1-23.6V0h-95.6v8.6c23.6,0.4,27.3,6.2,27.3,23.6
		v75.9c0,17.4-3.7,23.2-27.3,23.6v8.6h95.6v-8.6c-18.6-0.5-24.1-6.2-24.1-23.6V87.4c3.7-2.8,10.6-7.9,18.6-13.9l29.5,38.4
		c4.3,5.6,5.2,7.5,5.2,11.4c0,6.5-6.1,8-15.3,8.4v8.6h100.5v-8.6C764.9,130.5,748.3,116.7,738,103.1z"/>
	<polygon class="st0" points="375,321.8 374.9,321.8 356,294.7 351.1,294.7 351.1,327.4 355,327.4 355,300.2 355.1,300.2 374,327.4 
		378.9,327.4 378.9,294.7 375,294.7 	"/>
	<path class="st0" d="M439.7,293.9c-9.9,0-17.1,7.3-17.1,17.2c0,9.9,7.1,17.2,17.1,17.2c9.9,0,17.1-7.3,17.1-17.2
		C456.8,301.2,449.7,293.9,439.7,293.9z M439.7,324.6c-7.7,0-12.9-6-12.9-13.6c0-7.5,5.3-13.6,12.9-13.6c7.7,0,12.9,6,12.9,13.6
		C452.7,318.6,447.4,324.6,439.7,324.6z"/>
	<path class="st0" d="M400.7,294.7h-12.5v32.6h12.5c6.4,0,16-4.3,16-16.3C416.7,299,407.2,294.7,400.7,294.7z M399.4,323.8h-7.4
		v-25.5h7.4c7.5,0,13.1,3.8,13.1,12.7C412.6,320,406.9,323.8,399.4,323.8z"/>
	<path class="st0" d="M326.2,293.9c-9.9,0-17.1,7.3-17.1,17.2c0,9.9,7.1,17.2,17.1,17.2c9.9,0,17.1-7.3,17.1-17.2
		C343.3,301.2,336.2,293.9,326.2,293.9z M326.2,324.6c-7.7,0-12.9-6-12.9-13.6c0-7.5,5.3-13.6,12.9-13.6s12.9,6,12.9,13.6
		C339.2,318.6,333.9,324.6,326.2,324.6z"/>
	<polygon class="st0" points="291.6,294.7 287.8,294.7 287.8,327.4 306.6,327.4 306.6,323.8 291.6,323.8 	"/>
	<polygon class="st0" points="488.5,321.8 488.4,321.8 469.5,294.7 464.6,294.7 464.6,327.4 468.5,327.4 468.5,300.2 468.6,300.2 
		487.5,327.4 492.4,327.4 492.4,294.7 488.5,294.7 	"/>
	<path class="st0" d="M427.1,250.1h16.3l3.3,8h4.5l-13.9-32.6h-3.6l-14.4,32.6h4.4L427.1,250.1z M435.4,230.5L435.4,230.5l6.5,16.1
		h-13.3L435.4,230.5z"/>
	<polygon class="st0" points="484,258.2 467.1,240.4 483.2,225.5 477.7,225.5 462.8,239.6 462.3,239.6 462.3,225.5 458.4,225.5 
		458.4,258.2 462.3,258.2 462.3,241.6 462.8,241.6 478.4,258.2 	"/>
	<polygon class="st0" points="494.5,243 510.1,243 510.1,239.4 494.5,239.4 494.5,229.1 511.2,229.1 511.2,225.5 490.7,225.5 
		490.7,258.2 512,258.2 512,254.6 494.5,254.6 	"/>
	<polygon class="st0" points="396.6,258.2 408.3,230.8 408.4,230.8 408.4,258.2 412.3,258.2 412.3,225.5 406.6,225.5 395.5,251.1 
		395.4,251.1 384.3,225.5 378.6,225.5 378.6,258.2 382.4,258.2 382.4,230.8 382.5,230.8 394.2,258.2 	"/>
	<path class="st0" d="M541.4,234.5c0-8.1-6.7-9-13-9h-8.3v32.6h3.9v-14.7h5l8.9,14.7h4.7l-9.3-15
		C538.3,242.4,541.4,239.3,541.4,234.5z M527.4,239.9h-3.5v-10.8h5.4c3.8,0,7.9,0.7,7.9,5.4C537.3,239.9,531.7,239.9,527.4,239.9z"
		/>
	<rect x="303.9" y="225.5" class="st0" width="3.9" height="32.6"/>
	<polygon class="st0" points="360.6,258.2 360.6,229.1 371.4,229.1 371.4,225.5 345.9,225.5 345.9,229.1 356.7,229.1 356.7,258.2 	
		"/>
	<path class="st0" d="M249.4,239.8c-5.2-1.7-6.9-3-6.9-6c0-3.9,3.6-5.5,7-5.5c2.4,0,4.7,0.9,6,3l3.2-2.8c-2.4-2.8-5.5-3.8-9.1-3.8
		c-5.7,0-11.1,3.1-11.1,9.4c0,5.4,3.5,7.5,8.1,9c5.8,1.9,8.5,2.6,8.5,6.6c0,3.7-3.8,5.7-7.1,5.7c-2.8,0-5.6-1.2-7-3.6l-3.3,2.7
		c2.2,3.3,6.3,4.5,10,4.5c5.9,0,11.5-3,11.5-9.5C259.1,243,254.4,241.4,249.4,239.8z"/>
	<path class="st0" d="M322.4,243.5h5l8.9,14.7h4.7l-9.3-15c5.1-0.8,8.2-3.9,8.2-8.6c0-8.1-6.7-9-13-9h-8.3v32.6h3.9V243.5z
		 M322.4,229.1h5.4c3.8,0,7.9,0.7,7.9,5.4c0,5.4-5.6,5.4-9.9,5.4h-3.5V229.1z"/>
	<polygon class="st0" points="289.3,258.2 293.1,258.2 293.1,225.5 289.3,225.5 289.3,239.4 271.8,239.4 271.8,225.5 268,225.5 
		268,258.2 271.8,258.2 271.8,243 289.3,243 	"/>
</g>
</svg>
