<svg xmlns="http://www.w3.org/2000/svg" width="167.629" height="25.53" viewBox="0 0 167.629 25.53">
  <g id="Group_76" data-name="Group 76" transform="translate(-153.495 -276.459)">
    <path id="Exclusion_1" data-name="Exclusion 1" d="M-1839.631,251.989h-8.033l9.59-24.029h8.032l-9.589,24.029Zm-81.531,0h-8.033l9.59-24.029h16.992c2.342,0,4.03.664,4.881,1.92.9,1.324.864,3.3-.1,5.7a11.228,11.228,0,0,1-3.105,4.222,14.082,14.082,0,0,1-4.626,2.678l1.972,9.506h-8.718l-1.533-8.89h-3.776l-3.548,8.89Zm7.068-17.713h0l-1.013,2.54h7.449a2.044,2.044,0,0,0,1.825-1.305.978.978,0,0,0,.021-.918.957.957,0,0,0-.833-.317h-7.449Zm-21.211,17.713h-7.032l9.589-24.029h7.033l-9.589,24.029Zm-14.857,0h-5.033l9.59-24.029h5.033l-9.589,24.029Zm-17.572,0h-3.033l9.59-24.029h3.031l-9.589,24.029Zm73.177,0h-8.342l16.593-24.029h12.631l-2.586,24.028h-8.341l.319-2.437h-8.65l-1.625,2.437Zm11.758-17.678h0l-5.854,8.822h5.216l1.187-8.822h-.549Zm60.745,17.678h-14.314l9.589-24.029h14.589a9.316,9.316,0,0,1,3.914.793,6.542,6.542,0,0,1,2.741,2.28,7.009,7.009,0,0,1,1.154,3.754,12.485,12.485,0,0,1-1,5.017,18.323,18.323,0,0,1-3.225,5.235,21.291,21.291,0,0,1-4.4,3.819A17.713,17.713,0,0,1-1822.055,251.988Zm.772-17.678h0l-4.52,11.328h4.119a8.533,8.533,0,0,0,4.828-1.584,9.517,9.517,0,0,0,3.383-4.287c.7-1.747.737-3.1.117-4.011-.651-.96-2.024-1.447-4.083-1.447h-3.846Zm-45.057,17.678h-8.033l9.589-24.029h16.648c2.343,0,4.031.664,4.883,1.92.9,1.324.863,3.295-.1,5.7a13.179,13.179,0,0,1-11.184,7.552h-8.273l-3.534,8.855Zm7.055-17.678h0l-.987,2.471h7.106a2.015,2.015,0,0,0,1.812-1.27.934.934,0,0,0,.014-.881.963.963,0,0,0-.839-.32h-7.106Z" transform="translate(2125 49)" fill="#a4bc7c " stroke="rgba(0,0,0,0)" stroke-miterlimit="10" stroke-width="1"/>
  </g>
</svg>
